Seven Chances (1925) Silent, Black and White with English Intertitles
Neighbors (1920) Silent, Black and White with English Intertitles
The Balloonatic (1923) Silent, Black and White with English Intertitles

Director: Buster Keaton

Love has never been funnier or more difficult to manage than in the immortal Keaton comedies brought together on this DVD.

Opening with a newly-restored Technicolor sequence, Seven Chances is a film often imitated but never rivaled for hilarity and visual virtuosity. Keaton stars as Jimmie Shannon, a romantically jinxed young man who must marry by 7:00 PM to inherit seven million dollars. While fate seems to thwart his efforts to woo the object of his true affection (Ruth Dwyer), public announcement of his strange predicament provides him with a throng of would-be brides who are aggressive in thier pursuit of a husband, to say the least. In one of the most rousing, brilliantly choreographed sequences in Keaton's career, Shannon flees the horde of women while dodging the hostile forces of nature that seem to be conspiring against him (in the form of a colossal rockslide) during his manic dash to the altar.

Comedic courtship is further pursued in Neighbors (Dir. Buster Keaton, Eddie Cline. U.S. 1920. B&W. 18 mins. Music arranged by Robert Israel.), a short film in which Buster tries to woo his tenement sweetheart in spite of the barriers that stand between them.

In The Baloonatic (Dir. Buster Keaton, Eddie Cline. U.S. 1923. B&W. 22 mins. Musical setting by John Muri.), Buster is carried by hot air from a cityside amusement park to the rustic country where -- in a series of delightfully inventive vignettes -- he ineptly struggles for survival and again somehow manages to stumble into romance. 

Media Info:
General
Complete name                    : J:\Seeding\Seven Chances (1925)[DVDRip][big_dad_e™]\Seven Chances (1925)[DVDRip][big_dad_e™].AVI
Format                           : AVI
Format/Info                      : Audio Video Interleave
File size                        : 1.23 GiB
Duration                         : 1h 35mn
Overall bit rate                 : 1 834 Kbps

Video
ID                               : 0
Format                           : AVC
Format/Info                      : Advanced Video Codec
Format profile                   : Main@L3.0
Format settings, CABAC           : Yes
Format settings, ReFrames        : 2 frames
Format settings, GOP             : M=1, N=14
Codec ID                         : H264
Duration                         : 1h 35mn
Bit rate                         : 1 500 Kbps
Width                            : 666 pixels
Height                           : 458 pixels
Display aspect ratio             : 1.293
Frame rate                       : 29.970 fps
Color space                      : YUV
Chroma subsampling               : 4:2:0
Bit depth                        : 8 bits
Scan type                        : Progressive
Bits/(Pixel*Frame)               : 0.164
Stream size                      : 1.01 GiB (82%)
Writing library                  : x264 core 65 r1028M 83baa7f
Encoding settings                : cabac=1 / ref=2 / deblock=1:0:0 / analyse=0x1:0x111 / me=umh / subme=6 / psy_rd=1.0:0.0 / mixed_ref=0 / me_range=16 / chroma_me=1 / trellis=0 / 8x8dct=0 / cqm=0 / deadzone=21,11 / chroma_qp_offset=-2 / threads=3 / nr=0 / decimate=1 / mbaff=0 / bframes=2 / b_pyramid=0 / b_adapt=1 / b_bias=0 / direct=1 / wpredb=0 / keyint=300 / keyint_min=30 / scenecut=40(pre) / rc=2pass / bitrate=1500 / ratetol=1.0 / qcomp=0.60 / qpmin=10 / qpmax=51 / qpstep=4 / cplxblur=20.0 / qblur=0.5 / ip_ratio=1.40 / pb_ratio=1.30 / aq=1:1.00
Color primaries                  : BT.601-6 525, BT.1358 525, BT.1700 NTSC, SMPTE 170M
Transfer characteristics         : BT.709-5, BT.1361
Matrix coefficients              : BT.601-6 525, BT.1358 525, BT.1700 NTSC, SMPTE 170M

Audio
ID                               : 1
Format                           : MPEG Audio
Format version                   : Version 1
Format profile                   : Layer 3
Mode                             : Joint stereo
Codec ID                         : 55
Codec ID/Hint                    : MP3
Duration                         : 1h 35mn
Bit rate mode                    : Constant
Bit rate                         : 320 Kbps
Channel(s)                       : 2 channels
Sampling rate                    : 48.0 KHz
Stream size                      : 220 MiB (17%)
Alignment                        : Split accross interleaves
Interleave, duration             : 24 ms (0.72 video frame)
Interleave, preload duration     : 863 ms
Writing library                  : LAME3.98UX¥µ

File Scan:
Malwarebytes' Anti-Malware 1.50.1.1100
www.malwarebytes.org

Database version: 5385

Windows 5.1.2600 Service Pack 3
Internet Explorer 8.0.6001.18702

12/23/2010 2:44:50 PM
mbam-log-2010-12-23 (14-44-50).txt

Scan type: Quick scan
Objects scanned: 5
Time elapsed: 16 second(s)

Memory Processes Infected: 0
Memory Modules Infected: 0
Registry Keys Infected: 0
Registry Values Infected: 0
Registry Data Items Infected: 0
Folders Infected: 0
Files Infected: 0

Memory Processes Infected:
(No malicious items detected)

Memory Modules Infected:
(No malicious items detected)

Registry Keys Infected:
(No malicious items detected)

Registry Values Infected:
(No malicious items detected)

Registry Data Items Infected:
(No malicious items detected)

Folders Infected:
(No malicious items detected)

Files Infected:
(No malicious items detected)

When using TPB please read these important notes:
  
01- Anti-malware apps may warn about keygens, patches, cracks, etc., because of 
    their capabilities, (generating codes, etc.). Sometimes they're added to 
    the virus/spyware database and will be detected as malware. If you don't trust
    the keygens, patches, cracks, etc., don't use them. 
    
02- Before running .exe-files, keygens, patches, cracks, etc., always check first 
    if they can be unpacked. Often some third party added a virus to the 
    original file, repacked it and uploaded it again.

03- Letting anti-malware apps send scan results to their companies can cause
    keygens, patches, cracks, etc., to be added to their virus-database.

04- Firewalls which are set to automatically determine connections will allow 
    apps & malware!. Avoid this by manually configuring your firewall.

05- Usually (new) torrents with many downloads and seeders in a brief period is
    suspicious! Torrents with the Skull & Crossbones icon are trusted.

06- Some people use multiple accounts and post fake comments 
    and/or files trying to spread confusion. They seldom seriously
    comment or have any torrents, or a just a few to look passable.

07- Clicking on unknown links can cause malware to be installed on your machine.
  
08- In general often there are more fake and negative comments than reliable and
    positive comments.

09- In some countries uploading/downloading copyright protected material is 
    forbidden, but showing some appreciation to reliable up-loaders is not.

10- Posting fake and negative comments or fake/infected uploads on TPB can result
    in getting banned from TPB!

Requests?  Find me on SuprBay. http://forum.suprbay.org/member.php?action=profile&uid=91870
 

For reporting bad or suspicious torrents:  
http://forum.suprbay.org/forumdisplay.php?fid=29

For more of my torrents: 
https://thepiratebay.org/user/big_dad_e/  (Secured)

All torrents scanned with:
Norton Anti-virus
Malwarebytes' Anti-malware
 
http://www.pirate-party.us/

ALWAYS SEED & THANKS SEEDERS!